<svg xmlns="http://www.w3.org/2000/svg" viewBox="0 0 100 100">
    <defs>
        <style>
            .cls-1{fill:#4178ff;}
            .cls-2{fill:#4178ff;}
        </style>
    </defs>  
    <g id="pp-favicon" class="cls-2" data-name="pp-favicon">
        <path class="cls-1" d="M45.51,1.42a29,29,0,0,0-8.94,1.4.78.78,0,0,0-.2.11l-.36,0H30.29a4.13,4.13,0,0,0-3.94,4.28V84.06a.67.67,0,0,0,.07.31l.81,1.84h0l3.29,7.49h0l1.94,4.41a.75.75,0,0,0,.69.46h0a.75.75,0,0,0,.69-.46l1.95-4.41h0l3.32-7.57h0l.78-1.77a.67.67,0,0,0,.07-.31V55.49a28.46,28.46,0,0,0,5.55.55C61,56,73.65,43.79,73.65,28.73S61,1.42,45.51,1.42ZM37.47,84a.75.75,0,0,0-.56.25l-.53.58-.45-.5V20.65h2.52V83.9l-.25.56L38,84.28A.65.65,0,0,0,37.47,84Zm-8.39,0a.75.75,0,0,0-.56.25l-.33.37-.32-.75V20.65h2.51v64l-.21.23-.53-.58a.73.73,0,0,0-.56-.25Zm9.37-64.89H27.87V17H38.45ZM33.73,84.33l0,0,0,0h0l0,0-.1-.06a.49.49,0,0,0-.15-.1l-.1,0a.58.58,0,0,0-.19,0h-.07a.79.79,0,0,0-.49.24l-.51.56,0,0-.13-.15V20.65h2.51v64l-.2.22ZM27.87,7.19a2.61,2.61,0,0,1,2.42-2.77H36a2,2,0,0,1,.51.06,2.72,2.72,0,0,1,1.93,2.71v8.3H27.87Zm1.21,78.73.53.58a.75.75,0,0,0,.56.25.73.73,0,0,0,.56-.25l.37-.41.37.41a.75.75,0,0,0,.56.25h0a.77.77,0,0,0,.57-.25l.52-.58.53.58a.73.73,0,0,0,.56.25.75.75,0,0,0,.56-.25h0l.53-.58.52.58a.75.75,0,0,0,.56.25.73.73,0,0,0,.56-.25l.53-.58.06.06L34.6,92.65H31.71l-2.85-6.48ZM40,19.89V11.73a19.18,19.18,0,0,1,5.55-.83c10.15,0,18.4,8,18.4,17.83s-8.25,17.83-18.4,17.83A18.65,18.65,0,0,1,40,45.72Zm5.55,34.64A27.35,27.35,0,0,1,40.07,54V47.34a20.46,20.46,0,0,0,5.44.73c11,0,19.92-8.68,19.92-19.34S56.49,9.39,45.51,9.39a20.22,20.22,0,0,0-5.44.73V7a4.47,4.47,0,0,0-1.35-3.22,27.57,27.57,0,0,1,6.79-.84c14.68,0,26.62,11.57,26.62,25.79S60.19,54.53,45.51,54.53Z"/>
    </g>
</svg>